<mxfile host="app.diagrams.net" modified="2023-11-09T04:43:54.172Z" agent="Mozilla/5.0 (Windows NT 10.0; Win64; x64) AppleWebKit/537.36 (KHTML, like Gecko) Chrome/119.0.0.0 Safari/537.36" etag="OePzwN-sgCsJT6ip7VUh" version="22.1.0" type="device">
  <diagram name="Page-1" id="8DdgHT_lzrCupyF-qvgf">
    <mxGraphModel dx="1242" dy="822" grid="1" gridSize="10" guides="1" tooltips="1" connect="1" arrows="1" fold="1" page="1" pageScale="1" pageWidth="1169" pageHeight="827" math="0" shadow="0">
      <root>
        <mxCell id="0" />
        <mxCell id="1" parent="0" />
        <mxCell id="XoGYOiqfx8qt8Q36udEH-1" value="" style="strokeWidth=1;shadow=0;dashed=0;align=center;html=1;shape=mxgraph.mockup.containers.browserWindow;rSize=0;strokeColor=#666666;strokeColor2=#008cff;strokeColor3=#c4c4c4;mainText=,;recursiveResize=0;" parent="1" vertex="1">
          <mxGeometry width="1160" height="820" as="geometry" />
        </mxCell>
        <mxCell id="XoGYOiqfx8qt8Q36udEH-2" value="Login" style="strokeWidth=1;shadow=0;dashed=0;align=center;html=1;shape=mxgraph.mockup.containers.anchor;fontSize=17;fontColor=#666666;align=left;whiteSpace=wrap;" parent="XoGYOiqfx8qt8Q36udEH-1" vertex="1">
          <mxGeometry x="60" y="12" width="150" height="26" as="geometry" />
        </mxCell>
        <mxCell id="XoGYOiqfx8qt8Q36udEH-3" value="https://www.hh2023.com" style="strokeWidth=1;shadow=0;dashed=0;align=center;html=1;shape=mxgraph.mockup.containers.anchor;rSize=0;fontSize=17;fontColor=#666666;align=left;" parent="XoGYOiqfx8qt8Q36udEH-1" vertex="1">
          <mxGeometry x="130" y="60" width="250" height="26" as="geometry" />
        </mxCell>
        <mxCell id="XoGYOiqfx8qt8Q36udEH-11" value="" style="strokeWidth=1;shadow=0;dashed=0;align=center;html=1;shape=mxgraph.mockup.forms.rrect;rSize=0;strokeColor=#999999;fillColor=#ffffff;" parent="XoGYOiqfx8qt8Q36udEH-1" vertex="1">
          <mxGeometry x="730" y="265" width="200" height="300" as="geometry" />
        </mxCell>
        <mxCell id="XoGYOiqfx8qt8Q36udEH-12" value="Sign In" style="strokeWidth=1;shadow=0;dashed=0;align=center;html=1;shape=mxgraph.mockup.forms.anchor;fontSize=12;fontColor=#666666;align=left;resizeWidth=1;spacingLeft=0;" parent="XoGYOiqfx8qt8Q36udEH-11" vertex="1">
          <mxGeometry width="100" height="20" relative="1" as="geometry">
            <mxPoint x="10" y="10" as="offset" />
          </mxGeometry>
        </mxCell>
        <mxCell id="XoGYOiqfx8qt8Q36udEH-13" value="" style="shape=line;strokeColor=#ddeeff;strokeWidth=2;html=1;resizeWidth=1;" parent="XoGYOiqfx8qt8Q36udEH-11" vertex="1">
          <mxGeometry width="180" height="10" relative="1" as="geometry">
            <mxPoint x="10" y="30" as="offset" />
          </mxGeometry>
        </mxCell>
        <mxCell id="XoGYOiqfx8qt8Q36udEH-14" value="User Name:" style="strokeWidth=1;shadow=0;dashed=0;align=center;html=1;shape=mxgraph.mockup.forms.anchor;fontSize=12;fontColor=#666666;align=left;resizeWidth=1;spacingLeft=0;" parent="XoGYOiqfx8qt8Q36udEH-11" vertex="1">
          <mxGeometry width="100" height="20" relative="1" as="geometry">
            <mxPoint x="10" y="40" as="offset" />
          </mxGeometry>
        </mxCell>
        <mxCell id="XoGYOiqfx8qt8Q36udEH-15" value="abhinavs" style="strokeWidth=1;shadow=0;dashed=0;align=center;html=1;shape=mxgraph.mockup.forms.rrect;rSize=0;strokeColor=#999999;fontColor=#666666;align=left;spacingLeft=5;resizeWidth=1;" parent="XoGYOiqfx8qt8Q36udEH-11" vertex="1">
          <mxGeometry width="150" height="25" relative="1" as="geometry">
            <mxPoint x="10" y="60" as="offset" />
          </mxGeometry>
        </mxCell>
        <mxCell id="XoGYOiqfx8qt8Q36udEH-16" value="Password:" style="strokeWidth=1;shadow=0;dashed=0;align=center;html=1;shape=mxgraph.mockup.forms.anchor;fontSize=12;fontColor=#666666;align=left;resizeWidth=1;spacingLeft=0;" parent="XoGYOiqfx8qt8Q36udEH-11" vertex="1">
          <mxGeometry width="100" height="20" relative="1" as="geometry">
            <mxPoint x="10" y="95" as="offset" />
          </mxGeometry>
        </mxCell>
        <mxCell id="XoGYOiqfx8qt8Q36udEH-17" value="********" style="strokeWidth=1;shadow=0;dashed=0;align=center;html=1;shape=mxgraph.mockup.forms.rrect;rSize=0;strokeColor=#999999;fontColor=#666666;align=left;spacingLeft=5;resizeWidth=1;" parent="XoGYOiqfx8qt8Q36udEH-11" vertex="1">
          <mxGeometry width="150" height="25" relative="1" as="geometry">
            <mxPoint x="10" y="115" as="offset" />
          </mxGeometry>
        </mxCell>
        <mxCell id="XoGYOiqfx8qt8Q36udEH-18" value="SIGN IN" style="strokeWidth=1;shadow=0;dashed=0;align=center;html=1;shape=mxgraph.mockup.forms.rrect;rSize=5;strokeColor=#B20000;fontColor=#ffffff;fillColor=#e51400;fontSize=16;fontStyle=1;" parent="XoGYOiqfx8qt8Q36udEH-11" vertex="1">
          <mxGeometry y="1" width="80" height="30" relative="1" as="geometry">
            <mxPoint x="20" y="-150" as="offset" />
          </mxGeometry>
        </mxCell>
        <mxCell id="XoGYOiqfx8qt8Q36udEH-19" value="Forgot Password?" style="strokeWidth=1;shadow=0;dashed=0;align=center;html=1;shape=mxgraph.mockup.forms.anchor;fontSize=12;fontColor=#9999ff;align=left;spacingLeft=0;fontStyle=4;resizeWidth=1;" parent="XoGYOiqfx8qt8Q36udEH-11" vertex="1">
          <mxGeometry y="1" width="150" height="20" relative="1" as="geometry">
            <mxPoint x="10" y="-110" as="offset" />
          </mxGeometry>
        </mxCell>
        <mxCell id="XoGYOiqfx8qt8Q36udEH-20" value="" style="shape=line;strokeColor=#ddeeff;strokeWidth=2;html=1;resizeWidth=1;" parent="XoGYOiqfx8qt8Q36udEH-11" vertex="1">
          <mxGeometry y="1" width="180" height="10" relative="1" as="geometry">
            <mxPoint x="10" y="-90" as="offset" />
          </mxGeometry>
        </mxCell>
        <mxCell id="XoGYOiqfx8qt8Q36udEH-22" value="SSO Login" style="strokeWidth=1;shadow=0;dashed=0;align=center;html=1;shape=mxgraph.mockup.forms.rrect;rSize=5;strokeColor=#B20000;fontColor=#ffffff;fillColor=#e51400;fontSize=16;fontStyle=1;" parent="XoGYOiqfx8qt8Q36udEH-11" vertex="1">
          <mxGeometry y="1" width="110" height="30" relative="1" as="geometry">
            <mxPoint x="45" y="-50" as="offset" />
          </mxGeometry>
        </mxCell>
        <mxCell id="XoGYOiqfx8qt8Q36udEH-24" value="" style="sketch=0;html=1;aspect=fixed;strokeColor=#B20000;shadow=0;fillColor=#e51400;verticalAlign=top;labelPosition=center;verticalLabelPosition=bottom;shape=mxgraph.gcp2.network;fontColor=#ffffff;opacity=60;" parent="XoGYOiqfx8qt8Q36udEH-1" vertex="1">
          <mxGeometry x="201" y="290" width="276" height="276" as="geometry" />
        </mxCell>
        <mxCell id="XoGYOiqfx8qt8Q36udEH-25" value="&lt;b&gt;&lt;font style=&quot;font-size: 19px;&quot; color=&quot;#ff0000&quot;&gt;HH 2023&lt;/font&gt;&lt;/b&gt;" style="shape=rect;strokeColor=none;fillColor=#333333;fontColor=#FFFFFF;align=left;spacing=16;fontSize=13;spacingLeft=8;whiteSpace=wrap;html=1;" parent="XoGYOiqfx8qt8Q36udEH-1" vertex="1">
          <mxGeometry y="110" width="1160" height="48" as="geometry" />
        </mxCell>
        <mxCell id="XoGYOiqfx8qt8Q36udEH-26" value="Login" style="text;verticalAlign=middle;align=center;fontColor=#EEFF41;fontSize=14;resizeHeight=1;whiteSpace=wrap;html=1;" parent="XoGYOiqfx8qt8Q36udEH-25" vertex="1">
          <mxGeometry x="1" width="88" height="48" relative="1" as="geometry">
            <mxPoint x="-88" as="offset" />
          </mxGeometry>
        </mxCell>
      </root>
    </mxGraphModel>
  </diagram>
</mxfile>
